<?xml version="1.0" encoding="utf-8"?>
<!-- Generator: Adobe Illustrator 24.3.0, SVG Export Plug-In . SVG Version: 6.00 Build 0)  -->
<svg version="1.1" id="Layer_1" xmlns="http://www.w3.org/2000/svg" xmlns:xlink="http://www.w3.org/1999/xlink" x="0px" y="0px"
	 viewBox="0 0 28 28" style="enable-background:new 0 0 28 28;" xml:space="preserve">
<style type="text/css">
	.st0{fill-rule:evenodd;clip-rule:evenodd;fill:#FFFFFF;}
</style>
<g>
	<path id="path28" class="st0" d="M7.15,26V9.81H1.76V26H7.15z M4.45,7.6c1.88,0,3.05-1.24,3.05-2.8C7.47,3.21,6.33,2,4.49,2
		C2.65,2,1.45,3.21,1.45,4.8c0,1.55,1.17,2.8,2.97,2.8H4.45L4.45,7.6z"/>
	<path id="path30" class="st0" d="M10.12,26h5.38v-9.04c0-0.48,0.03-0.97,0.18-1.31c0.39-0.97,1.27-1.97,2.76-1.97
		c1.95,0,2.73,1.48,2.73,3.66V26h5.38v-9.29c0-4.97-2.66-7.29-6.2-7.29c-2.9,0-4.18,1.62-4.89,2.73h0.04V9.81h-5.38
		C10.2,11.33,10.12,26,10.12,26L10.12,26z"/>
</g>
</svg>
