<svg xmlns="http://www.w3.org/2000/svg" xmlns:xlink="http://www.w3.org/1999/xlink" version="1.1" id="Layer_1" x="0px" y="0px" width="90px" height="90px" viewBox="0 0 90 90" enable-background="new 0 0 90 90" xml:space="preserve">
<path fill="#aaa" d="M45,5.085C22.953,5.085,5.085,22.953,5.085,45c0,22.048,17.868,39.915,39.915,39.915c22.04,0,39.915-17.867,39.915-39.915  C84.915,22.953,67.04,5.085,45,5.085z M63.731,59.57c1.285,1.281,1.285,3.358,0,4.644c-1.278,1.285-3.362,1.285-4.641,0L45,50.119  L30.909,64.214c-1.278,1.285-3.362,1.285-4.64,0c-1.286-1.285-1.286-3.362,0-4.644L40.835,45L26.269,30.43  c-1.286-1.278-1.286-3.351,0-4.644c1.278-1.278,3.362-1.278,4.64,0l14.087,14.095l14.095-14.095c1.278-1.278,3.362-1.278,4.641,0  c1.285,1.285,1.285,3.366,0,4.644L49.165,45L63.731,59.57z"/>
</svg>
