<?xml version="1.0" encoding="utf-8"?>
<!-- Generator: Adobe Illustrator 22.0.1, SVG Export Plug-In . SVG Version: 6.00 Build 0)  -->
<svg version="1.1" id="Layer_1" xmlns="http://www.w3.org/2000/svg" xmlns:xlink="http://www.w3.org/1999/xlink" x="0px" y="0px"
	 viewBox="0 0 60 60" style="enable-background:new 0 0 60 60;" xml:space="preserve">
<style type="text/css">
	.st0{fill:#4F7DC9;}
</style>
<g transform="translate(0,-952.36218)">
	<path class="st0" d="M2.8,953.3c-1.1,0.1-1.9,1.1-1.8,2.2c0,0.5,0.3,0.9,0.6,1.3l25.6,25.6l-25.6,25.6c-0.8,0.8-0.8,2-0.1,2.8
		c0.8,0.8,2,0.8,2.8,0.1c0,0,0,0,0.1-0.1L30,985.2l25.6,25.6c0.8,0.8,2,0.8,2.8,0s0.8-2,0-2.8c0,0,0,0-0.1-0.1l-25.6-25.6l25.6-25.6
		c0.8-0.8,0.8-2,0.1-2.8c-0.4-0.5-1.1-0.7-1.7-0.6c-0.4,0.1-0.8,0.3-1.2,0.6L30,979.5L4.4,953.9C4,953.5,3.4,953.3,2.8,953.3z"/>
</g>
</svg>
