<?xml version="1.0" encoding="utf-8"?>
<!-- Generator: Adobe Illustrator 17.1.0, SVG Export Plug-In . SVG Version: 6.00 Build 0)  -->
<!DOCTYPE svg PUBLIC "-//W3C//DTD SVG 1.1//EN" "http://www.w3.org/Graphics/SVG/1.1/DTD/svg11.dtd">
<svg version="1.1" id="Layer_1" xmlns="http://www.w3.org/2000/svg" xmlns:xlink="http://www.w3.org/1999/xlink" x="0px" y="0px"
	 viewBox="0 0 90 90" enable-background="new 0 0 90 90" xml:space="preserve">
<g id="g12" transform="translate(146.23819,345.87978)">
	<path id="path14" fill="#EF3F24" d="M-146.2-255.9h30v-90h-30V-255.9z"/>
</g>
<g id="g16" transform="translate(199.22839,345.87978)">
	<path id="path18" fill="#020202" d="M-169.2-255.9h30v-90h-30V-255.9z"/>
</g>
<g id="g20" transform="translate(252.21819,345.87978)">
	<path id="path22" fill="#4468B1" d="M-192.2-255.9h30v-90h-30V-255.9z"/>
</g>
<g id="g24" transform="translate(160.40909,358.27038)">
	<path id="path26" fill="#FFFFFF" d="M-142.5-305.4v-8.8c0-1.3-0.2-2.3-0.7-2.9c-0.5-0.6-1.3-0.9-2.5-0.9c-0.5,0-1.1,0.2-1.7,0.5
		s-1.1,0.7-1.4,1.1v11.1h-3.6v-15.4h2.6l0.7,1.4c1-1.1,2.4-1.7,4.3-1.7c1.8,0,3.3,0.6,4.3,1.6c1.1,1.1,1.6,2.6,1.6,4.6v9.4
		L-142.5-305.4L-142.5-305.4z"/>
</g>
<g id="g28" transform="translate(213.43539,358.27038)">
	<path id="path30" fill="#FFFFFF" d="M-169.6-317.9c1.6,0,2.8,0.4,3.6,1.1c0.7,0.7,1.1,2,1.1,3.8c0,1.7-0.3,2.9-1.1,3.7
		c-0.7,0.8-1.9,1.2-3.6,1.2c-0.8,0-1.6-0.3-2.3-0.8v-8C-171.1-317.6-170.4-317.9-169.6-317.9z M-168.8-305c2.3,0,4.2-0.7,5.5-2
		c1.4-1.4,2-3.3,2-5.8c0-5.4-2.4-8.1-7.4-8.1c-1.3,0-2.4,0.5-3.3,1.3v-1h-3.6v21.4h3.6v-6.4C-170.9-305.3-169.8-305-168.8-305z"/>
</g>
<g id="g32" transform="translate(270.08519,358.27038)">
	<path id="path34" fill="#FFFFFF" d="M-191.1-317.4c-0.6-0.4-1.4-0.6-2.1-0.6c-0.8,0-1.6,0.4-2.2,1.1c-0.6,0.7-1,1.7-1,2.8v8.7h-3.6
		v-15.4h3.6v1.5c1-1.1,2.3-1.8,4-1.8c1.2,0,2.2,0.2,2.8,0.6C-189.6-320.4-191.1-317.4-191.1-317.4z"/>
</g>
</svg>
