<svg xmlns="http://www.w3.org/2000/svg" xmlns:xlink="http://www.w3.org/1999/xlink" version="1.1" x="0px" y="0px" viewBox="0 0 30 37.5" style="enable-background:new 0 0 30 30; fill:#fff" xml:space="preserve"><g><polygon points="23,10.5 19,10.5 18.5,10.5 18.5,11.5 19,11.5 22.5,11.5 22.5,26.5 7.5,26.5 7.5,11.5 11,11.5 11.5,11.5 11.5,10.5    11,10.5 7,10.5 6.5,10.5 6.5,11 6.5,27 6.5,27.5 7,27.5 23,27.5 23.5,27.5 23.5,27 23.5,11 23.5,10.5  "/><polygon points="11.4,8.4 14.5,5.2 14.5,19 14.5,19.5 15.5,19.5 15.5,19 15.5,5.2 18.6,8.4 19,8.7 19.7,8 19.4,7.6 15.4,3.6    15,3.3 14.6,3.6 10.6,7.6 10.3,8 11,8.7  "/></g></svg>
