<svg xmlns="http://www.w3.org/2000/svg" xmlns:xlink="http://www.w3.org/1999/xlink" version="1.1" id="Your_Icon" x="0px" y="0px" width="100px" height="100px" viewBox="0 0 100 100" enable-background="new 0 0 100 100" xml:space="preserve">
<path fill="#aaa" d="M95.358,89.209L65.716,59.563c4.596-5.904,7.362-13.298,7.362-21.341c0-19.219-15.636-34.854-34.856-34.854  c-19.218,0-34.853,15.635-34.853,34.854c0,19.214,15.635,34.846,34.853,34.846c8.043,0,15.438-2.764,21.342-7.356l29.644,29.648  c0.849,0.849,1.961,1.273,3.075,1.273c1.112,0,2.226-0.424,3.075-1.273C97.055,93.661,97.055,90.908,95.358,89.209z M12.065,38.222  c0-14.424,11.734-26.158,26.157-26.158c14.424,0,26.159,11.734,26.159,26.158c0,14.42-11.736,26.15-26.159,26.15  C23.8,64.371,12.065,52.641,12.065,38.222z"/>
</svg>
