<?xml version="1.0" encoding="utf-8"?>
<!-- Generator: Adobe Illustrator 22.0.1, SVG Export Plug-In . SVG Version: 6.00 Build 0)  -->
<svg version="1.1" id="Layer_1" xmlns="http://www.w3.org/2000/svg" xmlns:xlink="http://www.w3.org/1999/xlink" x="0px" y="0px"
	 viewBox="0 0 82.8 82.8" style="enable-background:new 0 0 82.8 82.8;" xml:space="preserve">
<style type="text/css">
	.st0{fill:#FFFFFF;stroke:#FFFFFF;stroke-width:2;stroke-miterlimit:10;}
	.st1{fill:#FFFFFF;stroke:#FFFFFF;stroke-miterlimit:10;}
</style>
<title>Pause</title>
<path class="st0" d="M41.4,71.4c-16.6,0-30-13.4-30-30s13.4-30,30-30s30,13.4,30,30c0,0,0,0,0,0C71.4,57.9,57.9,71.3,41.4,71.4z
	 M41.4,15.1c-14.5,0-26.3,11.8-26.3,26.3s11.8,26.3,26.3,26.3c14.5,0,26.3-11.8,26.3-26.3C67.6,26.9,55.9,15.1,41.4,15.1L41.4,15.1z
	"/>
<path class="st1" d="M33.7,27.8h2.6c0.8,0,1.5,0.7,1.5,1.5v24.1c0,0.8-0.7,1.5-1.5,1.5h-2.6c-0.8,0-1.5-0.7-1.5-1.5V29.3
	C32.2,28.5,32.9,27.8,33.7,27.8z"/>
<path class="st1" d="M46.1,27.8h2.6c0.8,0,1.5,0.7,1.5,1.5v24.1c0,0.8-0.7,1.5-1.5,1.5h-2.6c-0.8,0-1.5-0.7-1.5-1.5V29.3
	C44.6,28.5,45.3,27.8,46.1,27.8z"/>
</svg>
