<svg shape-rendering="optimizeQuality" xmlns="http://www.w3.org/2000/svg" xmlns:xlink="http://www.w3.org/1999/xlink" version="1.1" x="0px" y="0px" viewBox="0 0 100 100" enable-background="new 0 0 100 100" xml:space="preserve">
  <g>
    <path fill="#fff" d="M43.663,20.975c-0.212-0.086-0.449-0.025-0.609,0.139L25.565,39h-10.86C14.393,39,14,39.23,14,39.541v20.3   C14,60.153,14.393,61,14.705,61h10.48l17.879,17.582c0.108,0.108,0.252,0.017,0.399,0.017c0.073,0,0.132-0.088,0.202-0.117   C43.876,78.394,44,78.114,44,77.886V21.497C44,21.268,43.875,21.061,43.663,20.975z"></path>
    <path fill="#fff" d="M51.693,41.346c2.176,2.142,3.375,5.006,3.375,8.063c0,3.118-1.243,6.024-3.499,8.182l3.118,3.26   c3.155-3.018,4.892-7.081,4.892-11.442c0-4.276-1.677-8.281-4.722-11.278L51.693,41.346z"></path>
    <path fill="#fff" d="M65.285,27.723l-3.18,3.201c4.887,4.854,7.578,11.319,7.578,18.204c0,7.094-2.833,13.697-7.978,18.593l3.11,3.268   c6.047-5.755,9.379-13.518,9.379-21.861C74.195,41.032,71.031,33.431,65.285,27.723z"></path>
    <path fill="#fff" d="M73.434,19.553l-3.158,3.222c7.255,7.109,11.25,16.618,11.25,26.775c0,10.162-3.997,19.673-11.255,26.78l3.156,3.223   c8.131-7.963,12.609-18.618,12.609-30.003C86.037,38.171,81.561,27.518,73.434,19.553z"></path>
  </g>
</svg>
