<svg shape-rendering="optimizeQuality" xmlns="http://www.w3.org/2000/svg" xmlns:xlink="http://www.w3.org/1999/xlink" version="1.1" x="0px" y="0px" viewBox="0 0 100 100" style="enable-background:new 0 0 100 100;" xml:space="preserve">
  <g>
    <path fill="#4f7dc9" d="M48,86.5c20.1,0,36.5-16.4,36.5-36.5h-16c0,11.3-9.2,20.5-20.5,20.5S27.5,61.3,27.5,50S36.7,29.5,48,29.5   c4.3,0,8.3,1.3,11.7,3.7l-5.3,5.5c-1.1,1.2-0.6,3,1,3l24.5,0.2c1,0,1.9-0.9,1.8-1.9l-1.2-24.4c-0.1-1.6-1.9-2-3-0.8l-6.5,6.8   c-6.5-5.2-14.5-8.1-22.9-8.1c-20.1,0-36.5,16.4-36.5,36.5S27.9,86.5,48,86.5z"></path>
  </g>
</svg>
